<svg xmlns="http://www.w3.org/2000/svg" width="800px" height="800px" viewBox="0 0 14 14" role="img" focusable="false" aria-hidden="true">

<g transform="translate(.42857133 .14285704) scale(.28571)">

<path fill="#007ba7" d="M4 28V8c0-2.2 1.8-4 4-4h28c2.2 0 4 1.8 4 4v20c0 2.2-1.8 4-4 4H8c-2.2 0-4-1.8-4-4z"/>

<path fill="#bbdefb" d="M36 7H8c-.6 0-1 .4-1 1v20c0 .6.4 1 1 1h28c.6 0 1-.4 1-1V8c0-.6-.4-1-1-1z"/>

<path fill="#001524" d="M38 33H6c-2.2 0-4-1.8-4-4h40c0 2.2-1.8 4-4 4z"/>

<path fill="#cd533b" d="M24 40V16c0-2.2 1.8-4 4-4h12c2.2 0 4 1.8 4 4v24c0 2.2-1.8 4-4 4H28c-2.2 0-4-1.8-4-4z"/>

<path fill="#fff3e0" d="M40 15H28c-.6 0-1 .4-1 1v22c0 .6.4 1 1 1h12c.6 0 1-.4 1-1V16c0-.6-.4-1-1-1z"/>

<circle cx="34" cy="41.5" r="1.5" fill="#a6642a"/>

</g>

</svg>